<mxfile host="app.diagrams.net" modified="2024-09-05T13:21:02.478Z" agent="Mozilla/5.0 (Macintosh; Intel Mac OS X 10_15_7) AppleWebKit/537.36 (KHTML, like Gecko) Chrome/126.0.0.0 Safari/537.36" version="24.7.1" etag="VCqwWwgF8IZZM1jBkZuc" type="github">
  <diagram name="Page-1" id="SoXBKlPjR7OvnHhpM57W">
    <mxGraphModel>
      <root>
        <mxCell id="0" />
        <mxCell id="1" parent="0" />
      </root>
    </mxGraphModel>
  </diagram>
</mxfile>
